<?xml version="1.0" encoding="UTF-8" standalone="no"?>
<svg
   width="42.599998mm"
   height="39.438477mm"
   viewBox="0 0 42.599999 39.438477"
   version="1.1"
   id="svg1"
   sodipodi:docname="icon2.svg"
   inkscape:version="1.4.3 (0d15f75042, 2025-12-25)"
   xmlns:inkscape="http://www.inkscape.org/namespaces/inkscape"
   xmlns:sodipodi="http://sodipodi.sourceforge.net/DTD/sodipodi-0.dtd"
   xmlns="http://www.w3.org/2000/svg"
   xmlns:svg="http://www.w3.org/2000/svg">
  <defs
     id="defs1" />
  <sodipodi:namedview
     id="namedview1"
     pagecolor="#505050"
     bordercolor="#eeeeee"
     borderopacity="1"
     inkscape:showpageshadow="0"
     inkscape:pageopacity="0"
     inkscape:pagecheckerboard="0"
     inkscape:deskcolor="#505050"
     inkscape:document-units="mm"
     inkscape:zoom="11.313708"
     inkscape:cx="41.321553"
     inkscape:cy="89.316425"
     inkscape:window-width="5120"
     inkscape:window-height="2621"
     inkscape:window-x="2560"
     inkscape:window-y="210"
     inkscape:window-maximized="1"
     inkscape:current-layer="svg1" />
  <g
     id="Part__Part2DObjectPython001"
     transform="matrix(1,0,0,-1,33.8,16.3)"
     style="stroke-width:2.5;stroke-dasharray:none">
    <path
       id="Part__Part2DObjectPython001_w0000"
       d="M 0,-15 A 15,7.5 -90 0 0 0,15 15,7.5 -90 0 0 0,-15 H -7.5"
       stroke="#f1f3f5"
       stroke-width="0.7 px"
       style="fill:none;fill-opacity:1;fill-rule:evenodd;stroke-width:2.5;stroke-linecap:round;stroke-miterlimit:4;stroke-dasharray:none" />
    <path
       id="Part__Part2DObjectPython001_w0001"
       d="m 0,15 h -22.5 c -5.522847,0 -10,-4.477153 -10,-10 v -24.3 l 2.5,1.8 2.5,-2.5 2.5,2.499999 L -22.5,-20 -20,-17.500001 -17.5,-20 -15,-17.500001 -12.5,-20 -10,-17.500001 -7.5,-19.3 V 0"
       stroke="#f1f3f5"
       stroke-width="0.7 px"
       style="fill:none;fill-opacity:1;fill-rule:evenodd;stroke-width:2.5;stroke-linecap:round;stroke-miterlimit:4;stroke-dasharray:none"
       sodipodi:nodetypes="csscccccccccccc" />
    <path
       id="Part__Part2DObjectPython001_w0002"
       d="M 0,-5 A 5,2.5 -90 0 0 0,5 5,2.5 -90 0 0 0,-5"
       stroke="#f1f3f5"
       stroke-width="0.7 px"
       style="fill:none;fill-opacity:1;fill-rule:evenodd;stroke-width:2.5;stroke-linecap:round;stroke-miterlimit:4;stroke-dasharray:none" />
    <title
       id="title1">b'Part__Part2DObjectPython001'</title>
  </g>
  <path
     style="fill:#ffffff;stroke:#ffffff;stroke-width:2;stroke-linecap:round;stroke-dasharray:3;stroke-dashoffset:0"
     d="M 3.6741698,11.48564 H 24.298921"
     id="path1"
     sodipodi:nodetypes="cc" />
</svg>
