<?xml version="1.0" encoding="UTF-8" standalone="no"?>
<svg
   width="42mm"
   height="42mm"
   viewBox="0 0 42.000000 42.000000"
   version="1.1"
   id="svg1"
   sodipodi:docname="icon.svg"
   inkscape:version="1.4.3 (0d15f75042, 2025-12-25)"
   xmlns:inkscape="http://www.inkscape.org/namespaces/inkscape"
   xmlns:sodipodi="http://sodipodi.sourceforge.net/DTD/sodipodi-0.dtd"
   xmlns="http://www.w3.org/2000/svg"
   xmlns:svg="http://www.w3.org/2000/svg">
  <defs
     id="defs1" />
  <sodipodi:namedview
     id="namedview1"
     pagecolor="#505050"
     bordercolor="#eeeeee"
     borderopacity="1"
     inkscape:showpageshadow="0"
     inkscape:pageopacity="0"
     inkscape:pagecheckerboard="0"
     inkscape:deskcolor="#505050"
     inkscape:document-units="mm"
     inkscape:zoom="11.313708"
     inkscape:cx="56.082409"
     inkscape:cy="79.858876"
     inkscape:window-width="5120"
     inkscape:window-height="2663"
     inkscape:window-x="2560"
     inkscape:window-y="168"
     inkscape:window-maximized="1"
     inkscape:current-layer="svg1" />
  <g
     id="Part__Part2DObjectPython001"
     transform="matrix(0.99091592,0,0,-1.1087845,33.386583,17.954159)"
     style="stroke-width:2.38505299;stroke-dasharray:none">
    <path
       id="Part__Part2DObjectPython001_w0000"
       d="M 0,-15 A 15,7.5 -90 0 0 0,15 15,7.5 -90 0 0 0,-15 H -7.5"
       stroke="#f1f3f5"
       stroke-width="0.7 px"
       style="fill:none;fill-opacity:1;fill-rule:evenodd;stroke-width:2.38505299;stroke-linecap:round;stroke-miterlimit:4;stroke-dasharray:none" />
    <path
       id="Part__Part2DObjectPython001_w0001"
       d="m 0,15 h -22.5 c -5.522847,0 -10,-4.477153 -10,-10 v -24.3 l 2.5,1.8 2.5,-2.5 2.5,2.499999 L -22.5,-20 -20,-17.500001 -17.5,-20 -15,-17.500001 -12.5,-20 -10,-17.500001 -7.5,-19.3 V 0"
       stroke="#f1f3f5"
       stroke-width="0.7 px"
       style="fill:none;fill-opacity:1;fill-rule:evenodd;stroke-width:2.38505299;stroke-linecap:round;stroke-miterlimit:4;stroke-dasharray:none"
       sodipodi:nodetypes="csscccccccccccc" />
    <path
       id="Part__Part2DObjectPython001_w0002"
       d="M 0,-5 A 5,2.5 -90 0 0 0,5 5,2.5 -90 0 0 0,-5"
       stroke="#f1f3f5"
       stroke-width="0.7 px"
       style="fill:none;fill-opacity:1;fill-rule:evenodd;stroke-width:2.38505299;stroke-linecap:round;stroke-miterlimit:4;stroke-dasharray:none" />
    <title
       id="title1">b'Part__Part2DObjectPython001'</title>
  </g>
  <path
     style="fill:#ffffff;stroke:#ffffff;stroke-width:1.93;stroke-linecap:round;stroke-dasharray:2.89499083;stroke-dashoffset:0"
     d="M 3.5204061,12.591405 H 23.868038"
     id="path1"
     sodipodi:nodetypes="cc" />
</svg>
